<svg viewBox="0 0 100 20" xmlns="http://www.w3.org/2000/svg">
  <path fill="white" fill-rule="evenodd" clip-rule="evenodd" d="M21.184 20C21.541 19.87 21.904 19.736 22.272 19.598L24.04 18.937C33.64 15.347 39.647 14 50 14C60.271 14 65.362 15.222 74.629 18.928C75.584 19.311 76.498 19.668 77.379 20H83.604C81.094 19.27 78.465 18.309 75.371 17.072C65.888 13.278 60.562 12 50 12C39.374 12 33.145 13.397 23.34 17.063L21.573 17.725C19.098 18.648 16.913 19.399 14.849 20H21.184V20ZM21.184 0C13.258 2.892 8.077 4 0 4V2C5.744 2 9.951 1.426 14.85 0H21.184V0ZM77.38 0C85.239 2.966 90.502 4 100 4V2C93.158 2 88.614 1.458 83.604 0H77.379H77.38ZM0 14C8.44 14 13.718 12.79 22.272 9.598L24.04 8.937C33.64 5.347 39.647 4 50 4C60.271 4 65.362 5.222 74.629 8.928C84.112 12.722 89.438 14 100 14V12C89.729 12 84.638 10.778 75.371 7.072C65.888 3.278 60.562 2 50 2C39.374 2 33.145 3.397 23.34 7.063L21.573 7.725C13.223 10.84 8.163 12 0 12V14Z" />
</svg>
